<svg width="26" height="26" viewBox="0 0 26 26" fill="none" xmlns="http://www.w3.org/2000/svg">
<path d="M25.2004 8.7645L17.2339 0.796694C16.1785 -0.258797 14.4613 -0.25866 13.4061 0.796694L0.79918 13.4056C0.28792 13.9168 0.00634766 14.5966 0.00634766 15.3197C0.00634766 16.0428 0.287852 16.7227 0.799111 17.2339L8.76571 25.2016C9.27697 25.7129 9.9566 25.9946 10.6796 25.9946C11.4025 25.9946 12.0823 25.713 12.5934 25.2017L25.2004 12.5928C25.7117 12.0815 25.9932 11.4017 25.9932 10.6786C25.9932 9.95557 25.7117 9.27577 25.2004 8.7645ZM24.2336 11.6258L11.6267 24.2349C11.3738 24.4878 11.0374 24.6272 10.6796 24.6272C10.3219 24.6272 9.98552 24.4878 9.73259 24.2348L1.76592 16.267C1.51292 16.014 1.3736 15.6776 1.3736 15.3198C1.37354 14.9619 1.51292 14.6255 1.76592 14.3725L14.3729 1.76365C14.634 1.50247 14.977 1.37189 15.32 1.37189C15.663 1.37189 16.006 1.50254 16.2671 1.76365L24.2336 9.73138C24.4866 9.98442 24.6259 10.3208 24.6259 10.6786C24.6259 11.0364 24.4866 11.3729 24.2336 11.6258Z" fill="#00B2FF"/>
</svg>
